<mxfile host="app.diagrams.net" agent="Mozilla/5.0 (Macintosh; Intel Mac OS X 10_15_7) AppleWebKit/605.1.15 (KHTML, like Gecko) Version/18.3.1 Safari/605.1.15" version="26.1.2">
  <diagram name="Page-1" id="luR2FFAwwnQC8byFWhqQ">
    <mxGraphModel dx="1420" dy="2156" grid="1" gridSize="10" guides="1" tooltips="1" connect="1" arrows="1" fold="1" page="1" pageScale="1" pageWidth="827" pageHeight="1169" math="0" shadow="0">
      <root>
        <mxCell id="0" />
        <mxCell id="1" parent="0" />
        <mxCell id="AryeixgYwKDA9CnlknnB-269" value="OPERE" style="rounded=0;whiteSpace=wrap;html=1;" parent="1" vertex="1">
          <mxGeometry x="360" y="480" width="120" height="60" as="geometry" />
        </mxCell>
        <mxCell id="AryeixgYwKDA9CnlknnB-270" value="fatto" style="shape=rhombus;perimeter=rhombusPerimeter;whiteSpace=wrap;html=1;align=center;" parent="1" vertex="1">
          <mxGeometry x="200" y="480" width="120" height="60" as="geometry" />
        </mxCell>
        <mxCell id="AryeixgYwKDA9CnlknnB-271" value="ARTISTI" style="rounded=0;whiteSpace=wrap;html=1;" parent="1" vertex="1">
          <mxGeometry x="200" y="340" width="120" height="60" as="geometry" />
        </mxCell>
        <mxCell id="AryeixgYwKDA9CnlknnB-272" value="QUADRI" style="rounded=0;whiteSpace=wrap;html=1;" parent="1" vertex="1">
          <mxGeometry x="120" y="661" width="120" height="60" as="geometry" />
        </mxCell>
        <mxCell id="AryeixgYwKDA9CnlknnB-273" value="SCULTURA" style="rounded=0;whiteSpace=wrap;html=1;" parent="1" vertex="1">
          <mxGeometry x="280" y="661" width="120" height="60" as="geometry" />
        </mxCell>
        <mxCell id="AryeixgYwKDA9CnlknnB-274" value="INSTALLAZIONE" style="rounded=0;whiteSpace=wrap;html=1;" parent="1" vertex="1">
          <mxGeometry x="440" y="661" width="120" height="60" as="geometry" />
        </mxCell>
        <mxCell id="AryeixgYwKDA9CnlknnB-275" value="CONCETTUALE" style="rounded=0;whiteSpace=wrap;html=1;" parent="1" vertex="1">
          <mxGeometry x="600" y="661" width="120" height="60" as="geometry" />
        </mxCell>
        <mxCell id="AryeixgYwKDA9CnlknnB-276" value="" style="shape=flexArrow;endArrow=classic;html=1;rounded=0;fillColor=#000000;entryX=0.5;entryY=1;entryDx=0;entryDy=0;" parent="1" edge="1" target="AryeixgYwKDA9CnlknnB-269">
          <mxGeometry width="50" height="50" relative="1" as="geometry">
            <mxPoint x="420" y="600" as="sourcePoint" />
            <mxPoint x="450" y="620" as="targetPoint" />
            <Array as="points">
              <mxPoint x="420" y="590" />
              <mxPoint x="420" y="560" />
            </Array>
          </mxGeometry>
        </mxCell>
        <mxCell id="AryeixgYwKDA9CnlknnB-282" value="restauro" style="shape=rhombus;perimeter=rhombusPerimeter;whiteSpace=wrap;html=1;align=center;" parent="1" vertex="1">
          <mxGeometry x="360" y="340" width="120" height="60" as="geometry" />
        </mxCell>
        <mxCell id="AryeixgYwKDA9CnlknnB-283" value="RESTAURI" style="rounded=0;whiteSpace=wrap;html=1;" parent="1" vertex="1">
          <mxGeometry x="360" y="200" width="120" height="60" as="geometry" />
        </mxCell>
        <mxCell id="AryeixgYwKDA9CnlknnB-284" value="avvenuto" style="shape=rhombus;perimeter=rhombusPerimeter;whiteSpace=wrap;html=1;align=center;" parent="1" vertex="1">
          <mxGeometry x="200" y="200" width="120" height="60" as="geometry" />
        </mxCell>
        <mxCell id="AryeixgYwKDA9CnlknnB-285" value="LABORATORI" style="rounded=0;whiteSpace=wrap;html=1;" parent="1" vertex="1">
          <mxGeometry x="200" y="59" width="120" height="60" as="geometry" />
        </mxCell>
        <mxCell id="AryeixgYwKDA9CnlknnB-286" value="" style="endArrow=none;html=1;rounded=0;exitX=0.5;exitY=1;exitDx=0;exitDy=0;entryX=0.5;entryY=0;entryDx=0;entryDy=0;" parent="1" source="AryeixgYwKDA9CnlknnB-285" edge="1" target="AryeixgYwKDA9CnlknnB-284">
          <mxGeometry width="50" height="50" relative="1" as="geometry">
            <mxPoint x="150" y="280" as="sourcePoint" />
            <mxPoint x="200" y="230" as="targetPoint" />
          </mxGeometry>
        </mxCell>
        <mxCell id="AryeixgYwKDA9CnlknnB-287" value="" style="endArrow=none;html=1;rounded=0;" parent="1" source="AryeixgYwKDA9CnlknnB-284" edge="1">
          <mxGeometry width="50" height="50" relative="1" as="geometry">
            <mxPoint x="310" y="280" as="sourcePoint" />
            <mxPoint x="360" y="230" as="targetPoint" />
          </mxGeometry>
        </mxCell>
        <mxCell id="AryeixgYwKDA9CnlknnB-288" value="" style="endArrow=none;html=1;rounded=0;entryX=0.5;entryY=1;entryDx=0;entryDy=0;exitX=0.5;exitY=0;exitDx=0;exitDy=0;" parent="1" source="AryeixgYwKDA9CnlknnB-282" target="AryeixgYwKDA9CnlknnB-283" edge="1">
          <mxGeometry width="50" height="50" relative="1" as="geometry">
            <mxPoint x="380" y="360" as="sourcePoint" />
            <mxPoint x="430" y="310" as="targetPoint" />
          </mxGeometry>
        </mxCell>
        <mxCell id="AryeixgYwKDA9CnlknnB-289" value="" style="endArrow=none;html=1;rounded=0;entryX=0.5;entryY=1;entryDx=0;entryDy=0;exitX=0.5;exitY=0;exitDx=0;exitDy=0;" parent="1" edge="1">
          <mxGeometry width="50" height="50" relative="1" as="geometry">
            <mxPoint x="419.76" y="480" as="sourcePoint" />
            <mxPoint x="419.76" y="400" as="targetPoint" />
          </mxGeometry>
        </mxCell>
        <mxCell id="AryeixgYwKDA9CnlknnB-298" value="esposizione" style="shape=rhombus;perimeter=rhombusPerimeter;whiteSpace=wrap;html=1;align=center;" parent="1" vertex="1">
          <mxGeometry x="520" y="480" width="120" height="60" as="geometry" />
        </mxCell>
        <mxCell id="AryeixgYwKDA9CnlknnB-303" value="MOSTRE" style="rounded=0;whiteSpace=wrap;html=1;" parent="1" vertex="1">
          <mxGeometry x="680" y="480" width="120" height="60" as="geometry" />
        </mxCell>
        <mxCell id="AryeixgYwKDA9CnlknnB-304" value="COLLABORAZIONI" style="rounded=0;whiteSpace=wrap;html=1;" parent="1" vertex="1">
          <mxGeometry x="600" y="60" width="120" height="60" as="geometry" />
        </mxCell>
        <mxCell id="AryeixgYwKDA9CnlknnB-305" value="aiuto" style="shape=rhombus;perimeter=rhombusPerimeter;whiteSpace=wrap;html=1;align=center;" parent="1" vertex="1">
          <mxGeometry x="360" y="60" width="120" height="60" as="geometry" />
        </mxCell>
        <mxCell id="AryeixgYwKDA9CnlknnB-306" value="" style="endArrow=none;html=1;rounded=0;entryX=0.5;entryY=1;entryDx=0;entryDy=0;" parent="1" target="AryeixgYwKDA9CnlknnB-305" edge="1">
          <mxGeometry width="50" height="50" relative="1" as="geometry">
            <mxPoint x="420" y="200" as="sourcePoint" />
            <mxPoint x="470" y="150" as="targetPoint" />
          </mxGeometry>
        </mxCell>
        <mxCell id="AryeixgYwKDA9CnlknnB-307" value="" style="endArrow=none;html=1;rounded=0;entryX=0;entryY=0.5;entryDx=0;entryDy=0;" parent="1" target="AryeixgYwKDA9CnlknnB-304" edge="1">
          <mxGeometry width="50" height="50" relative="1" as="geometry">
            <mxPoint x="480" y="90" as="sourcePoint" />
            <mxPoint x="530" y="40" as="targetPoint" />
          </mxGeometry>
        </mxCell>
        <mxCell id="AryeixgYwKDA9CnlknnB-311" value="" style="endArrow=none;html=1;rounded=0;entryX=0;entryY=0.5;entryDx=0;entryDy=0;" parent="1" target="AryeixgYwKDA9CnlknnB-298" edge="1">
          <mxGeometry width="50" height="50" relative="1" as="geometry">
            <mxPoint x="480" y="510" as="sourcePoint" />
            <mxPoint x="530" y="460" as="targetPoint" />
          </mxGeometry>
        </mxCell>
        <mxCell id="AryeixgYwKDA9CnlknnB-313" value="concesso" style="shape=rhombus;perimeter=rhombusPerimeter;whiteSpace=wrap;html=1;align=center;" parent="1" vertex="1">
          <mxGeometry x="840" y="60" width="120" height="60" as="geometry" />
        </mxCell>
        <mxCell id="AryeixgYwKDA9CnlknnB-314" value="TEMPORANEE" style="rounded=0;whiteSpace=wrap;html=1;" parent="1" vertex="1">
          <mxGeometry x="840" y="525" width="120" height="60" as="geometry" />
        </mxCell>
        <mxCell id="AryeixgYwKDA9CnlknnB-315" value="PERMANENTI" style="rounded=0;whiteSpace=wrap;html=1;" parent="1" vertex="1">
          <mxGeometry x="840" y="430" width="120" height="60" as="geometry" />
        </mxCell>
        <mxCell id="AryeixgYwKDA9CnlknnB-318" value="" style="endArrow=none;html=1;rounded=0;" parent="1" edge="1">
          <mxGeometry width="50" height="50" relative="1" as="geometry">
            <mxPoint x="820" y="570" as="sourcePoint" />
            <mxPoint x="820" y="460" as="targetPoint" />
          </mxGeometry>
        </mxCell>
        <mxCell id="AryeixgYwKDA9CnlknnB-323" value="" style="endArrow=none;html=1;rounded=0;exitX=1;exitY=0.5;exitDx=0;exitDy=0;" parent="1" source="AryeixgYwKDA9CnlknnB-313" edge="1">
          <mxGeometry width="50" height="50" relative="1" as="geometry">
            <mxPoint x="990" y="80" as="sourcePoint" />
            <mxPoint x="1000" y="90" as="targetPoint" />
          </mxGeometry>
        </mxCell>
        <mxCell id="AryeixgYwKDA9CnlknnB-324" value="" style="endArrow=none;html=1;rounded=0;entryX=0;entryY=0.5;entryDx=0;entryDy=0;" parent="1" edge="1">
          <mxGeometry width="50" height="50" relative="1" as="geometry">
            <mxPoint x="720" y="90.41" as="sourcePoint" />
            <mxPoint x="840" y="90.41" as="targetPoint" />
          </mxGeometry>
        </mxCell>
        <mxCell id="AryeixgYwKDA9CnlknnB-326" value="RESPONSABILI" style="rounded=0;whiteSpace=wrap;html=1;" parent="1" vertex="1">
          <mxGeometry x="680" y="200" width="120" height="60" as="geometry" />
        </mxCell>
        <mxCell id="AryeixgYwKDA9CnlknnB-327" value="ZONE" style="rounded=0;whiteSpace=wrap;html=1;" parent="1" vertex="1">
          <mxGeometry x="840" y="340" width="120" height="60" as="geometry" />
        </mxCell>
        <mxCell id="AryeixgYwKDA9CnlknnB-328" value="cordinazione" style="shape=rhombus;perimeter=rhombusPerimeter;whiteSpace=wrap;html=1;align=center;" parent="1" vertex="1">
          <mxGeometry x="520" y="200" width="120" height="60" as="geometry" />
        </mxCell>
        <mxCell id="AryeixgYwKDA9CnlknnB-330" value="" style="endArrow=none;html=1;rounded=0;exitX=1;exitY=0.5;exitDx=0;exitDy=0;entryX=0;entryY=0.5;entryDx=0;entryDy=0;" parent="1" source="AryeixgYwKDA9CnlknnB-283" target="AryeixgYwKDA9CnlknnB-328" edge="1">
          <mxGeometry width="50" height="50" relative="1" as="geometry">
            <mxPoint x="510" y="230" as="sourcePoint" />
            <mxPoint x="560" y="180" as="targetPoint" />
          </mxGeometry>
        </mxCell>
        <mxCell id="AryeixgYwKDA9CnlknnB-332" value="guardato" style="shape=rhombus;perimeter=rhombusPerimeter;whiteSpace=wrap;html=1;align=center;" parent="1" vertex="1">
          <mxGeometry x="840" y="200" width="120" height="60" as="geometry" />
        </mxCell>
        <mxCell id="AryeixgYwKDA9CnlknnB-333" value="" style="endArrow=none;html=1;rounded=0;entryX=0;entryY=0.5;entryDx=0;entryDy=0;" parent="1" target="AryeixgYwKDA9CnlknnB-326" edge="1">
          <mxGeometry width="50" height="50" relative="1" as="geometry">
            <mxPoint x="640" y="230" as="sourcePoint" />
            <mxPoint x="690" y="180" as="targetPoint" />
          </mxGeometry>
        </mxCell>
        <mxCell id="AryeixgYwKDA9CnlknnB-334" value="divisione" style="shape=rhombus;perimeter=rhombusPerimeter;whiteSpace=wrap;html=1;align=center;" parent="1" vertex="1">
          <mxGeometry x="680" y="340" width="120" height="60" as="geometry" />
        </mxCell>
        <mxCell id="AryeixgYwKDA9CnlknnB-335" value="" style="endArrow=none;html=1;rounded=0;entryX=0.5;entryY=1;entryDx=0;entryDy=0;exitX=0.5;exitY=0;exitDx=0;exitDy=0;" parent="1" source="AryeixgYwKDA9CnlknnB-303" target="AryeixgYwKDA9CnlknnB-334" edge="1">
          <mxGeometry width="50" height="50" relative="1" as="geometry">
            <mxPoint x="720" y="470" as="sourcePoint" />
            <mxPoint x="770" y="420" as="targetPoint" />
          </mxGeometry>
        </mxCell>
        <mxCell id="AryeixgYwKDA9CnlknnB-336" value="" style="endArrow=none;html=1;rounded=0;exitX=1;exitY=0.5;exitDx=0;exitDy=0;entryX=0;entryY=0.5;entryDx=0;entryDy=0;" parent="1" source="AryeixgYwKDA9CnlknnB-334" target="AryeixgYwKDA9CnlknnB-327" edge="1">
          <mxGeometry width="50" height="50" relative="1" as="geometry">
            <mxPoint x="830" y="320" as="sourcePoint" />
            <mxPoint x="880" y="270" as="targetPoint" />
          </mxGeometry>
        </mxCell>
        <mxCell id="AryeixgYwKDA9CnlknnB-337" value="" style="endArrow=none;html=1;rounded=0;exitX=1;exitY=0.5;exitDx=0;exitDy=0;entryX=0;entryY=0.5;entryDx=0;entryDy=0;" parent="1" source="AryeixgYwKDA9CnlknnB-326" target="AryeixgYwKDA9CnlknnB-332" edge="1">
          <mxGeometry width="50" height="50" relative="1" as="geometry">
            <mxPoint x="880" y="300" as="sourcePoint" />
            <mxPoint x="930" y="250" as="targetPoint" />
          </mxGeometry>
        </mxCell>
        <mxCell id="AryeixgYwKDA9CnlknnB-338" value="" style="endArrow=none;html=1;rounded=0;entryX=0.5;entryY=1;entryDx=0;entryDy=0;exitX=0.5;exitY=0;exitDx=0;exitDy=0;" parent="1" source="AryeixgYwKDA9CnlknnB-327" target="AryeixgYwKDA9CnlknnB-332" edge="1">
          <mxGeometry width="50" height="50" relative="1" as="geometry">
            <mxPoint x="860" y="350" as="sourcePoint" />
            <mxPoint x="910" y="300" as="targetPoint" />
          </mxGeometry>
        </mxCell>
        <mxCell id="AryeixgYwKDA9CnlknnB-339" value="" style="endArrow=none;html=1;rounded=0;entryX=0;entryY=0.5;entryDx=0;entryDy=0;" parent="1" target="AryeixgYwKDA9CnlknnB-303" edge="1">
          <mxGeometry width="50" height="50" relative="1" as="geometry">
            <mxPoint x="640" y="510" as="sourcePoint" />
            <mxPoint x="690" y="460" as="targetPoint" />
          </mxGeometry>
        </mxCell>
        <mxCell id="Yn2UF99OzoSKR1iccTGJ-1" value="id restauro" style="text;html=1;align=center;verticalAlign=middle;resizable=0;points=[];autosize=1;strokeColor=none;fillColor=none;" vertex="1" parent="1">
          <mxGeometry x="441" y="267" width="80" height="30" as="geometry" />
        </mxCell>
        <mxCell id="Yn2UF99OzoSKR1iccTGJ-2" value="livello degradazione" style="text;html=1;align=center;verticalAlign=middle;resizable=0;points=[];autosize=1;strokeColor=none;fillColor=none;" vertex="1" parent="1">
          <mxGeometry x="444" y="158" width="130" height="30" as="geometry" />
        </mxCell>
        <mxCell id="Yn2UF99OzoSKR1iccTGJ-3" value="nome&amp;nbsp;&lt;div&gt;opera&lt;/div&gt;" style="text;html=1;align=center;verticalAlign=middle;resizable=0;points=[];autosize=1;strokeColor=none;fillColor=none;" vertex="1" parent="1">
          <mxGeometry x="360" y="420" width="60" height="40" as="geometry" />
        </mxCell>
        <mxCell id="Yn2UF99OzoSKR1iccTGJ-4" value="anno&lt;div&gt;&amp;nbsp;creazione&lt;/div&gt;" style="text;html=1;align=center;verticalAlign=middle;resizable=0;points=[];autosize=1;strokeColor=none;fillColor=none;" vertex="1" parent="1">
          <mxGeometry x="411" y="416.5" width="80" height="40" as="geometry" />
        </mxCell>
        <mxCell id="Yn2UF99OzoSKR1iccTGJ-5" value="valore&lt;div&gt;&amp;nbsp;di mercato&lt;/div&gt;" style="text;html=1;align=center;verticalAlign=middle;resizable=0;points=[];autosize=1;strokeColor=none;fillColor=none;" vertex="1" parent="1">
          <mxGeometry x="295" y="527" width="80" height="40" as="geometry" />
        </mxCell>
        <mxCell id="Yn2UF99OzoSKR1iccTGJ-6" value="messaggio" style="text;html=1;align=center;verticalAlign=middle;resizable=0;points=[];autosize=1;strokeColor=none;fillColor=none;" vertex="1" parent="1">
          <mxGeometry x="285" y="461" width="80" height="30" as="geometry" />
        </mxCell>
        <mxCell id="Yn2UF99OzoSKR1iccTGJ-7" value="corrente&amp;nbsp;&lt;div&gt;artistica&lt;/div&gt;" style="text;html=1;align=center;verticalAlign=middle;resizable=0;points=[];autosize=1;strokeColor=none;fillColor=none;" vertex="1" parent="1">
          <mxGeometry x="480" y="450" width="70" height="40" as="geometry" />
        </mxCell>
        <mxCell id="Yn2UF99OzoSKR1iccTGJ-8" value="livello&lt;div&gt;&amp;nbsp;attrezzatura&lt;/div&gt;" style="text;html=1;align=center;verticalAlign=middle;resizable=0;points=[];autosize=1;strokeColor=none;fillColor=none;" vertex="1" parent="1">
          <mxGeometry x="182" y="-2" width="90" height="40" as="geometry" />
        </mxCell>
        <mxCell id="Yn2UF99OzoSKR1iccTGJ-9" value="specializzazione" style="text;html=1;align=center;verticalAlign=middle;resizable=0;points=[];autosize=1;strokeColor=none;fillColor=none;" vertex="1" parent="1">
          <mxGeometry x="287" y="128" width="110" height="30" as="geometry" />
        </mxCell>
        <mxCell id="Yn2UF99OzoSKR1iccTGJ-10" value="nome&amp;nbsp;&lt;div&gt;laboratorio&lt;/div&gt;" style="text;html=1;align=center;verticalAlign=middle;resizable=0;points=[];autosize=1;strokeColor=none;fillColor=none;" vertex="1" parent="1">
          <mxGeometry x="170" y="125" width="80" height="40" as="geometry" />
        </mxCell>
        <mxCell id="Yn2UF99OzoSKR1iccTGJ-11" value="numero di&amp;nbsp;&lt;div&gt;restauratori&lt;/div&gt;" style="text;html=1;align=center;verticalAlign=middle;resizable=0;points=[];autosize=1;strokeColor=none;fillColor=none;" vertex="1" parent="1">
          <mxGeometry x="263" y="-3" width="80" height="40" as="geometry" />
        </mxCell>
        <mxCell id="Yn2UF99OzoSKR1iccTGJ-13" value="" style="shape=flexArrow;endArrow=classic;html=1;rounded=0;endWidth=11.515151515151516;endSize=3.4424242424242424;entryX=1;entryY=0.5;entryDx=0;entryDy=0;fillColor=#000000;" edge="1" parent="1" target="AryeixgYwKDA9CnlknnB-303">
          <mxGeometry width="50" height="50" relative="1" as="geometry">
            <mxPoint x="820" y="510" as="sourcePoint" />
            <mxPoint x="900" y="525" as="targetPoint" />
          </mxGeometry>
        </mxCell>
        <mxCell id="Yn2UF99OzoSKR1iccTGJ-14" value="" style="endArrow=none;html=1;rounded=0;entryX=0;entryY=0.5;entryDx=0;entryDy=0;" edge="1" parent="1" target="AryeixgYwKDA9CnlknnB-315">
          <mxGeometry width="50" height="50" relative="1" as="geometry">
            <mxPoint x="820" y="460" as="sourcePoint" />
            <mxPoint x="820" y="450" as="targetPoint" />
          </mxGeometry>
        </mxCell>
        <mxCell id="Yn2UF99OzoSKR1iccTGJ-15" value="" style="endArrow=none;html=1;rounded=0;entryX=0;entryY=0.5;entryDx=0;entryDy=0;" edge="1" parent="1">
          <mxGeometry width="50" height="50" relative="1" as="geometry">
            <mxPoint x="820" y="569.8" as="sourcePoint" />
            <mxPoint x="840" y="569.8" as="targetPoint" />
          </mxGeometry>
        </mxCell>
        <mxCell id="Yn2UF99OzoSKR1iccTGJ-16" value="" style="endArrow=none;html=1;rounded=0;" edge="1" parent="1">
          <mxGeometry width="50" height="50" relative="1" as="geometry">
            <mxPoint x="960" y="555" as="sourcePoint" />
            <mxPoint x="1000" y="555" as="targetPoint" />
          </mxGeometry>
        </mxCell>
        <mxCell id="Yn2UF99OzoSKR1iccTGJ-17" value="" style="endArrow=none;html=1;rounded=0;" edge="1" parent="1">
          <mxGeometry width="50" height="50" relative="1" as="geometry">
            <mxPoint x="1000" y="555" as="sourcePoint" />
            <mxPoint x="1000" y="90" as="targetPoint" />
          </mxGeometry>
        </mxCell>
        <mxCell id="Yn2UF99OzoSKR1iccTGJ-18" value="" style="endArrow=none;html=1;rounded=0;exitX=0.5;exitY=1;exitDx=0;exitDy=0;" edge="1" parent="1" source="AryeixgYwKDA9CnlknnB-271">
          <mxGeometry width="50" height="50" relative="1" as="geometry">
            <mxPoint x="220" y="480" as="sourcePoint" />
            <mxPoint x="260" y="480" as="targetPoint" />
          </mxGeometry>
        </mxCell>
        <mxCell id="Yn2UF99OzoSKR1iccTGJ-19" value="" style="endArrow=none;html=1;rounded=0;exitX=1;exitY=0.5;exitDx=0;exitDy=0;" edge="1" parent="1">
          <mxGeometry width="50" height="50" relative="1" as="geometry">
            <mxPoint x="320" y="509.81" as="sourcePoint" />
            <mxPoint x="360" y="509.81" as="targetPoint" />
          </mxGeometry>
        </mxCell>
        <mxCell id="Yn2UF99OzoSKR1iccTGJ-20" value="" style="endArrow=none;html=1;rounded=0;exitX=0.5;exitY=0;exitDx=0;exitDy=0;" edge="1" parent="1" source="AryeixgYwKDA9CnlknnB-272">
          <mxGeometry width="50" height="50" relative="1" as="geometry">
            <mxPoint x="180" y="640" as="sourcePoint" />
            <mxPoint x="180" y="600" as="targetPoint" />
          </mxGeometry>
        </mxCell>
        <mxCell id="Yn2UF99OzoSKR1iccTGJ-21" value="" style="endArrow=none;html=1;rounded=0;exitX=0.5;exitY=0;exitDx=0;exitDy=0;" edge="1" parent="1" source="AryeixgYwKDA9CnlknnB-273">
          <mxGeometry width="50" height="50" relative="1" as="geometry">
            <mxPoint x="339.65999999999997" y="640" as="sourcePoint" />
            <mxPoint x="339.65999999999997" y="600" as="targetPoint" />
          </mxGeometry>
        </mxCell>
        <mxCell id="Yn2UF99OzoSKR1iccTGJ-22" value="" style="endArrow=none;html=1;rounded=0;exitX=0.5;exitY=0;exitDx=0;exitDy=0;" edge="1" parent="1" source="AryeixgYwKDA9CnlknnB-274">
          <mxGeometry width="50" height="50" relative="1" as="geometry">
            <mxPoint x="499.65999999999997" y="640" as="sourcePoint" />
            <mxPoint x="499.65999999999997" y="600" as="targetPoint" />
          </mxGeometry>
        </mxCell>
        <mxCell id="Yn2UF99OzoSKR1iccTGJ-23" value="" style="endArrow=none;html=1;rounded=0;exitX=0.5;exitY=0;exitDx=0;exitDy=0;" edge="1" parent="1" source="AryeixgYwKDA9CnlknnB-275">
          <mxGeometry width="50" height="50" relative="1" as="geometry">
            <mxPoint x="659.66" y="640" as="sourcePoint" />
            <mxPoint x="659.66" y="600" as="targetPoint" />
          </mxGeometry>
        </mxCell>
        <mxCell id="Yn2UF99OzoSKR1iccTGJ-24" value="" style="endArrow=none;html=1;rounded=0;" edge="1" parent="1">
          <mxGeometry width="50" height="50" relative="1" as="geometry">
            <mxPoint x="180" y="600" as="sourcePoint" />
            <mxPoint x="660" y="600" as="targetPoint" />
          </mxGeometry>
        </mxCell>
        <mxCell id="Yn2UF99OzoSKR1iccTGJ-25" value="piano" style="text;html=1;align=center;verticalAlign=middle;resizable=0;points=[];autosize=1;strokeColor=none;fillColor=none;" vertex="1" parent="1">
          <mxGeometry x="823" y="300" width="50" height="30" as="geometry" />
        </mxCell>
        <mxCell id="Yn2UF99OzoSKR1iccTGJ-26" value="nome zona" style="text;html=1;align=center;verticalAlign=middle;resizable=0;points=[];autosize=1;strokeColor=none;fillColor=none;" vertex="1" parent="1">
          <mxGeometry x="922" y="300" width="80" height="30" as="geometry" />
        </mxCell>
        <mxCell id="Yn2UF99OzoSKR1iccTGJ-27" value="ala" style="text;strokeColor=none;align=center;fillColor=none;html=1;verticalAlign=middle;whiteSpace=wrap;rounded=0;" vertex="1" parent="1">
          <mxGeometry x="785" y="385.5" width="60" height="30" as="geometry" />
        </mxCell>
        <mxCell id="Yn2UF99OzoSKR1iccTGJ-28" value="data inizio" style="text;html=1;align=center;verticalAlign=middle;resizable=0;points=[];autosize=1;strokeColor=none;fillColor=none;" vertex="1" parent="1">
          <mxGeometry x="830" y="605" width="80" height="30" as="geometry" />
        </mxCell>
        <mxCell id="Yn2UF99OzoSKR1iccTGJ-29" value="data fine" style="text;html=1;align=center;verticalAlign=middle;resizable=0;points=[];autosize=1;strokeColor=none;fillColor=none;" vertex="1" parent="1">
          <mxGeometry x="895" y="605" width="70" height="30" as="geometry" />
        </mxCell>
        <mxCell id="Yn2UF99OzoSKR1iccTGJ-30" value="pubblico" style="text;html=1;align=center;verticalAlign=middle;resizable=0;points=[];autosize=1;strokeColor=none;fillColor=none;" vertex="1" parent="1">
          <mxGeometry x="557" y="19" width="70" height="30" as="geometry" />
        </mxCell>
        <mxCell id="Yn2UF99OzoSKR1iccTGJ-31" value="tipo" style="text;html=1;align=center;verticalAlign=middle;resizable=0;points=[];autosize=1;strokeColor=none;fillColor=none;" vertex="1" parent="1">
          <mxGeometry x="640" y="8" width="40" height="30" as="geometry" />
        </mxCell>
        <mxCell id="Yn2UF99OzoSKR1iccTGJ-32" value="ente" style="text;html=1;align=center;verticalAlign=middle;resizable=0;points=[];autosize=1;strokeColor=none;fillColor=none;" vertex="1" parent="1">
          <mxGeometry x="690" y="19" width="50" height="30" as="geometry" />
        </mxCell>
        <mxCell id="Yn2UF99OzoSKR1iccTGJ-33" value="livello" style="text;html=1;align=center;verticalAlign=middle;resizable=0;points=[];autosize=1;strokeColor=none;fillColor=none;" vertex="1" parent="1">
          <mxGeometry x="662.5" y="159" width="50" height="30" as="geometry" />
        </mxCell>
        <mxCell id="Yn2UF99OzoSKR1iccTGJ-34" value="codice fiscale" style="text;html=1;align=center;verticalAlign=middle;resizable=0;points=[];autosize=1;strokeColor=none;fillColor=none;" vertex="1" parent="1">
          <mxGeometry x="760" y="160" width="100" height="30" as="geometry" />
        </mxCell>
        <mxCell id="Yn2UF99OzoSKR1iccTGJ-35" value="nome&lt;div&gt;mostra&lt;/div&gt;" style="text;html=1;align=center;verticalAlign=middle;resizable=0;points=[];autosize=1;strokeColor=none;fillColor=none;" vertex="1" parent="1">
          <mxGeometry x="677" y="421" width="60" height="40" as="geometry" />
        </mxCell>
        <mxCell id="Yn2UF99OzoSKR1iccTGJ-36" value="tema" style="text;html=1;align=center;verticalAlign=middle;resizable=0;points=[];autosize=1;strokeColor=none;fillColor=none;" vertex="1" parent="1">
          <mxGeometry x="745" y="426.5" width="50" height="30" as="geometry" />
        </mxCell>
        <mxCell id="Yn2UF99OzoSKR1iccTGJ-37" value="psudonimo" style="text;html=1;align=center;verticalAlign=middle;resizable=0;points=[];autosize=1;strokeColor=none;fillColor=none;" vertex="1" parent="1">
          <mxGeometry x="147" y="302" width="80" height="30" as="geometry" />
        </mxCell>
        <mxCell id="Yn2UF99OzoSKR1iccTGJ-39" value="nome" style="text;html=1;align=center;verticalAlign=middle;resizable=0;points=[];autosize=1;strokeColor=none;fillColor=none;" vertex="1" parent="1">
          <mxGeometry x="235" y="287.5" width="50" height="30" as="geometry" />
        </mxCell>
        <mxCell id="Yn2UF99OzoSKR1iccTGJ-41" value="cognome" style="text;html=1;align=center;verticalAlign=middle;resizable=0;points=[];autosize=1;strokeColor=none;fillColor=none;" vertex="1" parent="1">
          <mxGeometry x="295" y="297" width="70" height="30" as="geometry" />
        </mxCell>
        <mxCell id="Yn2UF99OzoSKR1iccTGJ-42" value="nazionalità" style="text;html=1;align=center;verticalAlign=middle;resizable=0;points=[];autosize=1;strokeColor=none;fillColor=none;" vertex="1" parent="1">
          <mxGeometry x="152.5" y="409" width="80" height="30" as="geometry" />
        </mxCell>
        <mxCell id="Yn2UF99OzoSKR1iccTGJ-43" value="sesso" style="text;html=1;align=center;verticalAlign=middle;resizable=0;points=[];autosize=1;strokeColor=none;fillColor=none;" vertex="1" parent="1">
          <mxGeometry x="331" y="332" width="50" height="30" as="geometry" />
        </mxCell>
        <mxCell id="Yn2UF99OzoSKR1iccTGJ-44" value="data di&lt;div&gt;&amp;nbsp;nascita&lt;/div&gt;" style="text;html=1;align=center;verticalAlign=middle;resizable=0;points=[];autosize=1;strokeColor=none;fillColor=none;" vertex="1" parent="1">
          <mxGeometry x="128" y="370.5" width="60" height="40" as="geometry" />
        </mxCell>
        <mxCell id="Yn2UF99OzoSKR1iccTGJ-45" value="data di&lt;div&gt;&amp;nbsp;morte&lt;/div&gt;" style="text;html=1;align=center;verticalAlign=middle;resizable=0;points=[];autosize=1;strokeColor=none;fillColor=none;" vertex="1" parent="1">
          <mxGeometry x="129" y="329.5" width="60" height="40" as="geometry" />
        </mxCell>
        <mxCell id="Yn2UF99OzoSKR1iccTGJ-46" value="numero&amp;nbsp;&lt;div&gt;opere&lt;/div&gt;" style="text;html=1;align=center;verticalAlign=middle;resizable=0;points=[];autosize=1;strokeColor=none;fillColor=none;" vertex="1" parent="1">
          <mxGeometry x="328" y="376.5" width="70" height="40" as="geometry" />
        </mxCell>
        <mxCell id="Yn2UF99OzoSKR1iccTGJ-48" value="base" style="text;html=1;align=center;verticalAlign=middle;resizable=0;points=[];autosize=1;strokeColor=none;fillColor=none;" vertex="1" parent="1">
          <mxGeometry x="125" y="740" width="50" height="30" as="geometry" />
        </mxCell>
        <mxCell id="Yn2UF99OzoSKR1iccTGJ-49" value="dimensione" style="text;html=1;align=center;verticalAlign=middle;resizable=0;points=[];autosize=1;strokeColor=none;fillColor=none;" vertex="1" parent="1">
          <mxGeometry x="108" y="609" width="80" height="30" as="geometry" />
        </mxCell>
        <mxCell id="Yn2UF99OzoSKR1iccTGJ-50" value="tecnica" style="text;html=1;align=center;verticalAlign=middle;resizable=0;points=[];autosize=1;strokeColor=none;fillColor=none;" vertex="1" parent="1">
          <mxGeometry x="180" y="739" width="60" height="30" as="geometry" />
        </mxCell>
        <mxCell id="Yn2UF99OzoSKR1iccTGJ-51" value="dimensioni" style="text;html=1;align=center;verticalAlign=middle;resizable=0;points=[];autosize=1;strokeColor=none;fillColor=none;" vertex="1" parent="1">
          <mxGeometry x="267" y="739" width="80" height="30" as="geometry" />
        </mxCell>
        <mxCell id="Yn2UF99OzoSKR1iccTGJ-52" value="materiale" style="text;html=1;align=center;verticalAlign=middle;resizable=0;points=[];autosize=1;strokeColor=none;fillColor=none;" vertex="1" parent="1">
          <mxGeometry x="270" y="610" width="70" height="30" as="geometry" />
        </mxCell>
        <mxCell id="Yn2UF99OzoSKR1iccTGJ-53" value="tecnica scultorea" style="text;html=1;align=center;verticalAlign=middle;resizable=0;points=[];autosize=1;strokeColor=none;fillColor=none;" vertex="1" parent="1">
          <mxGeometry x="336" y="739" width="110" height="30" as="geometry" />
        </mxCell>
        <mxCell id="Yn2UF99OzoSKR1iccTGJ-54" value="coinvolgimento&lt;div&gt;&amp;nbsp;sensoriale&lt;/div&gt;" style="text;html=1;align=center;verticalAlign=middle;resizable=0;points=[];autosize=1;strokeColor=none;fillColor=none;" vertex="1" parent="1">
          <mxGeometry x="382" y="612" width="100" height="40" as="geometry" />
        </mxCell>
        <mxCell id="Yn2UF99OzoSKR1iccTGJ-55" value="interatività" style="text;html=1;align=center;verticalAlign=middle;resizable=0;points=[];autosize=1;strokeColor=none;fillColor=none;" vertex="1" parent="1">
          <mxGeometry x="495" y="730" width="80" height="30" as="geometry" />
        </mxCell>
        <mxCell id="Yn2UF99OzoSKR1iccTGJ-56" value="medium utilizzato" style="text;html=1;align=center;verticalAlign=middle;resizable=0;points=[];autosize=1;strokeColor=none;fillColor=none;" vertex="1" parent="1">
          <mxGeometry x="737" y="653" width="120" height="30" as="geometry" />
        </mxCell>
        <mxCell id="Yn2UF99OzoSKR1iccTGJ-57" value="coinvolgimento pubblico" style="text;html=1;align=center;verticalAlign=middle;resizable=0;points=[];autosize=1;strokeColor=none;fillColor=none;" vertex="1" parent="1">
          <mxGeometry x="740" y="694" width="150" height="30" as="geometry" />
        </mxCell>
        <mxCell id="Yn2UF99OzoSKR1iccTGJ-58" value="" style="ellipse;whiteSpace=wrap;html=1;aspect=fixed;" vertex="1" parent="1">
          <mxGeometry x="740" y="705" width="10" height="10" as="geometry" />
        </mxCell>
        <mxCell id="Yn2UF99OzoSKR1iccTGJ-59" value="" style="ellipse;whiteSpace=wrap;html=1;aspect=fixed;" vertex="1" parent="1">
          <mxGeometry x="740" y="665" width="10" height="10" as="geometry" />
        </mxCell>
        <mxCell id="Yn2UF99OzoSKR1iccTGJ-61" value="" style="endArrow=none;html=1;rounded=0;entryX=0;entryY=0.5;entryDx=0;entryDy=0;" edge="1" parent="1" target="Yn2UF99OzoSKR1iccTGJ-59">
          <mxGeometry width="50" height="50" relative="1" as="geometry">
            <mxPoint x="720" y="670" as="sourcePoint" />
            <mxPoint x="730" y="640" as="targetPoint" />
          </mxGeometry>
        </mxCell>
        <mxCell id="Yn2UF99OzoSKR1iccTGJ-62" value="" style="endArrow=none;html=1;rounded=0;exitX=1.003;exitY=0.813;exitDx=0;exitDy=0;exitPerimeter=0;entryX=0;entryY=0.5;entryDx=0;entryDy=0;" edge="1" parent="1" source="AryeixgYwKDA9CnlknnB-275" target="Yn2UF99OzoSKR1iccTGJ-58">
          <mxGeometry width="50" height="50" relative="1" as="geometry">
            <mxPoint x="740" y="710" as="sourcePoint" />
            <mxPoint x="790" y="660" as="targetPoint" />
          </mxGeometry>
        </mxCell>
        <mxCell id="Yn2UF99OzoSKR1iccTGJ-63" value="" style="ellipse;whiteSpace=wrap;html=1;aspect=fixed;" vertex="1" parent="1">
          <mxGeometry x="465" y="630" width="10" height="10" as="geometry" />
        </mxCell>
        <mxCell id="Yn2UF99OzoSKR1iccTGJ-64" value="" style="ellipse;whiteSpace=wrap;html=1;aspect=fixed;" vertex="1" parent="1">
          <mxGeometry x="495" y="740" width="10" height="10" as="geometry" />
        </mxCell>
        <mxCell id="Yn2UF99OzoSKR1iccTGJ-65" value="" style="endArrow=none;html=1;rounded=0;entryX=0.5;entryY=1;entryDx=0;entryDy=0;exitX=0.25;exitY=0;exitDx=0;exitDy=0;" edge="1" parent="1" source="AryeixgYwKDA9CnlknnB-274" target="Yn2UF99OzoSKR1iccTGJ-63">
          <mxGeometry width="50" height="50" relative="1" as="geometry">
            <mxPoint x="430" y="710" as="sourcePoint" />
            <mxPoint x="480" y="660" as="targetPoint" />
          </mxGeometry>
        </mxCell>
        <mxCell id="Yn2UF99OzoSKR1iccTGJ-66" value="" style="endArrow=none;html=1;rounded=0;entryX=0.5;entryY=1;entryDx=0;entryDy=0;exitX=0.5;exitY=0;exitDx=0;exitDy=0;" edge="1" parent="1" source="Yn2UF99OzoSKR1iccTGJ-64" target="AryeixgYwKDA9CnlknnB-274">
          <mxGeometry width="50" height="50" relative="1" as="geometry">
            <mxPoint x="440" y="790" as="sourcePoint" />
            <mxPoint x="490" y="740" as="targetPoint" />
          </mxGeometry>
        </mxCell>
        <mxCell id="Yn2UF99OzoSKR1iccTGJ-67" value="" style="ellipse;whiteSpace=wrap;html=1;aspect=fixed;" vertex="1" parent="1">
          <mxGeometry x="365" y="740" width="10" height="10" as="geometry" />
        </mxCell>
        <mxCell id="Yn2UF99OzoSKR1iccTGJ-68" value="" style="ellipse;whiteSpace=wrap;html=1;aspect=fixed;" vertex="1" parent="1">
          <mxGeometry x="305" y="740" width="10" height="10" as="geometry" />
        </mxCell>
        <mxCell id="Yn2UF99OzoSKR1iccTGJ-70" value="" style="ellipse;whiteSpace=wrap;html=1;aspect=fixed;" vertex="1" parent="1">
          <mxGeometry x="305" y="630" width="10" height="10" as="geometry" />
        </mxCell>
        <mxCell id="Yn2UF99OzoSKR1iccTGJ-71" value="" style="endArrow=none;html=1;rounded=0;entryX=0.25;entryY=0;entryDx=0;entryDy=0;exitX=0.5;exitY=1;exitDx=0;exitDy=0;" edge="1" parent="1" source="Yn2UF99OzoSKR1iccTGJ-70" target="AryeixgYwKDA9CnlknnB-273">
          <mxGeometry width="50" height="50" relative="1" as="geometry">
            <mxPoint x="200" y="700" as="sourcePoint" />
            <mxPoint x="250" y="650" as="targetPoint" />
          </mxGeometry>
        </mxCell>
        <mxCell id="Yn2UF99OzoSKR1iccTGJ-72" value="" style="endArrow=none;html=1;rounded=0;entryX=0.25;entryY=1;entryDx=0;entryDy=0;" edge="1" parent="1" target="AryeixgYwKDA9CnlknnB-273">
          <mxGeometry width="50" height="50" relative="1" as="geometry">
            <mxPoint x="310" y="740" as="sourcePoint" />
            <mxPoint x="280" y="760" as="targetPoint" />
          </mxGeometry>
        </mxCell>
        <mxCell id="Yn2UF99OzoSKR1iccTGJ-73" value="" style="endArrow=none;html=1;rounded=0;entryX=0.75;entryY=1;entryDx=0;entryDy=0;" edge="1" parent="1" target="AryeixgYwKDA9CnlknnB-273">
          <mxGeometry width="50" height="50" relative="1" as="geometry">
            <mxPoint x="370" y="740" as="sourcePoint" />
            <mxPoint x="380" y="810" as="targetPoint" />
          </mxGeometry>
        </mxCell>
        <mxCell id="Yn2UF99OzoSKR1iccTGJ-74" value="" style="endArrow=none;html=1;rounded=0;entryX=0.25;entryY=1;entryDx=0;entryDy=0;" edge="1" parent="1" target="AryeixgYwKDA9CnlknnB-272">
          <mxGeometry width="50" height="50" relative="1" as="geometry">
            <mxPoint x="150" y="740" as="sourcePoint" />
            <mxPoint x="130" y="730" as="targetPoint" />
          </mxGeometry>
        </mxCell>
        <mxCell id="Yn2UF99OzoSKR1iccTGJ-75" value="" style="endArrow=none;html=1;rounded=0;entryX=0.75;entryY=1;entryDx=0;entryDy=0;" edge="1" parent="1" target="AryeixgYwKDA9CnlknnB-272">
          <mxGeometry width="50" height="50" relative="1" as="geometry">
            <mxPoint x="210" y="740" as="sourcePoint" />
            <mxPoint x="200" y="730" as="targetPoint" />
          </mxGeometry>
        </mxCell>
        <mxCell id="Yn2UF99OzoSKR1iccTGJ-76" value="" style="endArrow=none;html=1;rounded=0;exitX=0.25;exitY=0;exitDx=0;exitDy=0;" edge="1" parent="1" source="AryeixgYwKDA9CnlknnB-272">
          <mxGeometry width="50" height="50" relative="1" as="geometry">
            <mxPoint x="124.78999999999999" y="659" as="sourcePoint" />
            <mxPoint x="150" y="640" as="targetPoint" />
          </mxGeometry>
        </mxCell>
        <mxCell id="Yn2UF99OzoSKR1iccTGJ-77" value="" style="ellipse;whiteSpace=wrap;html=1;aspect=fixed;" vertex="1" parent="1">
          <mxGeometry x="205" y="740" width="10" height="10" as="geometry" />
        </mxCell>
        <mxCell id="Yn2UF99OzoSKR1iccTGJ-78" value="" style="ellipse;whiteSpace=wrap;html=1;aspect=fixed;" vertex="1" parent="1">
          <mxGeometry x="145" y="740" width="10" height="10" as="geometry" />
        </mxCell>
        <mxCell id="Yn2UF99OzoSKR1iccTGJ-79" value="" style="ellipse;whiteSpace=wrap;html=1;aspect=fixed;" vertex="1" parent="1">
          <mxGeometry x="145" y="630" width="10" height="10" as="geometry" />
        </mxCell>
        <mxCell id="Yn2UF99OzoSKR1iccTGJ-80" value="" style="endArrow=none;html=1;rounded=0;entryX=0.25;entryY=0;entryDx=0;entryDy=0;" edge="1" parent="1" target="AryeixgYwKDA9CnlknnB-269">
          <mxGeometry width="50" height="50" relative="1" as="geometry">
            <mxPoint x="390" y="460" as="sourcePoint" />
            <mxPoint x="350" y="480" as="targetPoint" />
          </mxGeometry>
        </mxCell>
        <mxCell id="Yn2UF99OzoSKR1iccTGJ-81" value="" style="endArrow=none;html=1;rounded=0;entryX=0.75;entryY=0;entryDx=0;entryDy=0;" edge="1" parent="1" target="AryeixgYwKDA9CnlknnB-269">
          <mxGeometry width="50" height="50" relative="1" as="geometry">
            <mxPoint x="450" y="460" as="sourcePoint" />
            <mxPoint x="400" y="490" as="targetPoint" />
          </mxGeometry>
        </mxCell>
        <mxCell id="Yn2UF99OzoSKR1iccTGJ-82" value="" style="endArrow=none;html=1;rounded=0;entryX=0.996;entryY=0.169;entryDx=0;entryDy=0;entryPerimeter=0;" edge="1" parent="1" target="AryeixgYwKDA9CnlknnB-269">
          <mxGeometry width="50" height="50" relative="1" as="geometry">
            <mxPoint x="500" y="490" as="sourcePoint" />
            <mxPoint x="495.18" y="490.5" as="targetPoint" />
            <Array as="points" />
          </mxGeometry>
        </mxCell>
        <mxCell id="Yn2UF99OzoSKR1iccTGJ-83" value="" style="endArrow=none;html=1;rounded=0;" edge="1" parent="1">
          <mxGeometry width="50" height="50" relative="1" as="geometry">
            <mxPoint x="340" y="490" as="sourcePoint" />
            <mxPoint x="360" y="490" as="targetPoint" />
          </mxGeometry>
        </mxCell>
        <mxCell id="Yn2UF99OzoSKR1iccTGJ-84" value="" style="endArrow=none;html=1;rounded=0;" edge="1" parent="1">
          <mxGeometry width="50" height="50" relative="1" as="geometry">
            <mxPoint x="340" y="530" as="sourcePoint" />
            <mxPoint x="360" y="530" as="targetPoint" />
          </mxGeometry>
        </mxCell>
        <mxCell id="Yn2UF99OzoSKR1iccTGJ-88" value="" style="ellipse;whiteSpace=wrap;html=1;aspect=fixed;" vertex="1" parent="1">
          <mxGeometry x="500" y="484" width="10" height="10" as="geometry" />
        </mxCell>
        <mxCell id="Yn2UF99OzoSKR1iccTGJ-89" value="" style="ellipse;whiteSpace=wrap;html=1;aspect=fixed;" vertex="1" parent="1">
          <mxGeometry x="445" y="450" width="10" height="10" as="geometry" />
        </mxCell>
        <mxCell id="Yn2UF99OzoSKR1iccTGJ-90" value="" style="ellipse;whiteSpace=wrap;html=1;aspect=fixed;fillColor=#000000;" vertex="1" parent="1">
          <mxGeometry x="387.5" y="454.5" width="5" height="5" as="geometry" />
        </mxCell>
        <mxCell id="Yn2UF99OzoSKR1iccTGJ-91" value="" style="ellipse;whiteSpace=wrap;html=1;aspect=fixed;" vertex="1" parent="1">
          <mxGeometry x="330" y="484" width="10" height="10" as="geometry" />
        </mxCell>
        <mxCell id="Yn2UF99OzoSKR1iccTGJ-92" value="" style="ellipse;whiteSpace=wrap;html=1;aspect=fixed;" vertex="1" parent="1">
          <mxGeometry x="330" y="525" width="10" height="10" as="geometry" />
        </mxCell>
        <mxCell id="Yn2UF99OzoSKR1iccTGJ-93" value="" style="endArrow=none;html=1;rounded=0;exitX=0.25;exitY=0;exitDx=0;exitDy=0;" edge="1" parent="1" source="AryeixgYwKDA9CnlknnB-303">
          <mxGeometry width="50" height="50" relative="1" as="geometry">
            <mxPoint x="620" y="450" as="sourcePoint" />
            <mxPoint x="710" y="460" as="targetPoint" />
          </mxGeometry>
        </mxCell>
        <mxCell id="Yn2UF99OzoSKR1iccTGJ-94" value="" style="endArrow=none;html=1;rounded=0;exitX=0.75;exitY=0;exitDx=0;exitDy=0;" edge="1" parent="1" source="AryeixgYwKDA9CnlknnB-303">
          <mxGeometry width="50" height="50" relative="1" as="geometry">
            <mxPoint x="720" y="467" as="sourcePoint" />
            <mxPoint x="770" y="460" as="targetPoint" />
          </mxGeometry>
        </mxCell>
        <mxCell id="Yn2UF99OzoSKR1iccTGJ-95" value="" style="ellipse;whiteSpace=wrap;html=1;aspect=fixed;fillColor=#000000;" vertex="1" parent="1">
          <mxGeometry x="707.5" y="454.5" width="5" height="5" as="geometry" />
        </mxCell>
        <mxCell id="Yn2UF99OzoSKR1iccTGJ-98" value="" style="endArrow=none;html=1;rounded=0;" edge="1" parent="1">
          <mxGeometry width="50" height="50" relative="1" as="geometry">
            <mxPoint x="870" y="605" as="sourcePoint" />
            <mxPoint x="870" y="585" as="targetPoint" />
          </mxGeometry>
        </mxCell>
        <mxCell id="Yn2UF99OzoSKR1iccTGJ-99" value="" style="endArrow=none;html=1;rounded=0;entryX=0.75;entryY=1;entryDx=0;entryDy=0;" edge="1" parent="1" target="AryeixgYwKDA9CnlknnB-314">
          <mxGeometry width="50" height="50" relative="1" as="geometry">
            <mxPoint x="929.88" y="605" as="sourcePoint" />
            <mxPoint x="929.88" y="585" as="targetPoint" />
          </mxGeometry>
        </mxCell>
        <mxCell id="Yn2UF99OzoSKR1iccTGJ-100" value="" style="ellipse;whiteSpace=wrap;html=1;aspect=fixed;" vertex="1" parent="1">
          <mxGeometry x="865" y="605" width="10" height="10" as="geometry" />
        </mxCell>
        <mxCell id="Yn2UF99OzoSKR1iccTGJ-101" value="" style="ellipse;whiteSpace=wrap;html=1;aspect=fixed;" vertex="1" parent="1">
          <mxGeometry x="925" y="605" width="10" height="10" as="geometry" />
        </mxCell>
        <mxCell id="Yn2UF99OzoSKR1iccTGJ-102" value="" style="ellipse;whiteSpace=wrap;html=1;aspect=fixed;" vertex="1" parent="1">
          <mxGeometry x="765" y="449.5" width="10" height="10" as="geometry" />
        </mxCell>
        <mxCell id="Yn2UF99OzoSKR1iccTGJ-103" value="" style="endArrow=none;html=1;rounded=0;exitX=0.25;exitY=0;exitDx=0;exitDy=0;" edge="1" parent="1" source="AryeixgYwKDA9CnlknnB-327">
          <mxGeometry width="50" height="50" relative="1" as="geometry">
            <mxPoint x="870" y="350" as="sourcePoint" />
            <mxPoint x="870" y="320" as="targetPoint" />
          </mxGeometry>
        </mxCell>
        <mxCell id="Yn2UF99OzoSKR1iccTGJ-104" value="" style="endArrow=none;html=1;rounded=0;exitX=0.75;exitY=0;exitDx=0;exitDy=0;" edge="1" parent="1" source="AryeixgYwKDA9CnlknnB-327">
          <mxGeometry width="50" height="50" relative="1" as="geometry">
            <mxPoint x="880" y="350" as="sourcePoint" />
            <mxPoint x="930" y="320" as="targetPoint" />
          </mxGeometry>
        </mxCell>
        <mxCell id="Yn2UF99OzoSKR1iccTGJ-106" value="" style="endArrow=none;html=1;rounded=0;" edge="1" parent="1">
          <mxGeometry width="50" height="50" relative="1" as="geometry">
            <mxPoint x="840" y="390" as="sourcePoint" />
            <mxPoint x="820" y="390" as="targetPoint" />
          </mxGeometry>
        </mxCell>
        <mxCell id="Yn2UF99OzoSKR1iccTGJ-107" value="" style="ellipse;whiteSpace=wrap;html=1;aspect=fixed;" vertex="1" parent="1">
          <mxGeometry x="810" y="385.5" width="10" height="10" as="geometry" />
        </mxCell>
        <mxCell id="Yn2UF99OzoSKR1iccTGJ-108" value="" style="ellipse;whiteSpace=wrap;html=1;aspect=fixed;" vertex="1" parent="1">
          <mxGeometry x="865" y="310" width="10" height="10" as="geometry" />
        </mxCell>
        <mxCell id="Yn2UF99OzoSKR1iccTGJ-109" value="" style="ellipse;whiteSpace=wrap;html=1;aspect=fixed;fillColor=#000000;" vertex="1" parent="1">
          <mxGeometry x="927" y="315" width="5" height="5" as="geometry" />
        </mxCell>
        <mxCell id="Yn2UF99OzoSKR1iccTGJ-110" value="" style="endArrow=none;html=1;rounded=0;exitX=0.75;exitY=0;exitDx=0;exitDy=0;" edge="1" parent="1" source="AryeixgYwKDA9CnlknnB-326">
          <mxGeometry width="50" height="50" relative="1" as="geometry">
            <mxPoint x="830" y="260" as="sourcePoint" />
            <mxPoint x="770" y="180" as="targetPoint" />
          </mxGeometry>
        </mxCell>
        <mxCell id="Yn2UF99OzoSKR1iccTGJ-111" value="" style="endArrow=none;html=1;rounded=0;exitX=0.25;exitY=0;exitDx=0;exitDy=0;" edge="1" parent="1" source="AryeixgYwKDA9CnlknnB-326">
          <mxGeometry width="50" height="50" relative="1" as="geometry">
            <mxPoint x="712.5" y="185" as="sourcePoint" />
            <mxPoint x="710" y="180" as="targetPoint" />
          </mxGeometry>
        </mxCell>
        <mxCell id="Yn2UF99OzoSKR1iccTGJ-112" value="" style="ellipse;whiteSpace=wrap;html=1;aspect=fixed;" vertex="1" parent="1">
          <mxGeometry x="704.5" y="170" width="10" height="10" as="geometry" />
        </mxCell>
        <mxCell id="Yn2UF99OzoSKR1iccTGJ-113" value="" style="ellipse;whiteSpace=wrap;html=1;aspect=fixed;fillColor=#000000;" vertex="1" parent="1">
          <mxGeometry x="768" y="174.5" width="5" height="5" as="geometry" />
        </mxCell>
        <mxCell id="Yn2UF99OzoSKR1iccTGJ-114" value="" style="endArrow=none;html=1;rounded=0;exitX=0.5;exitY=0;exitDx=0;exitDy=0;" edge="1" parent="1" source="AryeixgYwKDA9CnlknnB-304">
          <mxGeometry width="50" height="50" relative="1" as="geometry">
            <mxPoint x="510" y="70" as="sourcePoint" />
            <mxPoint x="660" y="40" as="targetPoint" />
          </mxGeometry>
        </mxCell>
        <mxCell id="Yn2UF99OzoSKR1iccTGJ-115" value="" style="endArrow=none;html=1;rounded=0;exitX=0.5;exitY=0;exitDx=0;exitDy=0;" edge="1" parent="1">
          <mxGeometry width="50" height="50" relative="1" as="geometry">
            <mxPoint x="700" y="60" as="sourcePoint" />
            <mxPoint x="700" y="40" as="targetPoint" />
          </mxGeometry>
        </mxCell>
        <mxCell id="Yn2UF99OzoSKR1iccTGJ-116" value="" style="endArrow=none;html=1;rounded=0;exitX=0.5;exitY=0;exitDx=0;exitDy=0;" edge="1" parent="1">
          <mxGeometry width="50" height="50" relative="1" as="geometry">
            <mxPoint x="620" y="60" as="sourcePoint" />
            <mxPoint x="620" y="40" as="targetPoint" />
          </mxGeometry>
        </mxCell>
        <mxCell id="Yn2UF99OzoSKR1iccTGJ-117" value="" style="ellipse;whiteSpace=wrap;html=1;aspect=fixed;fillColor=#000000;" vertex="1" parent="1">
          <mxGeometry x="697.5" y="35" width="5" height="5" as="geometry" />
        </mxCell>
        <mxCell id="Yn2UF99OzoSKR1iccTGJ-118" value="" style="ellipse;whiteSpace=wrap;html=1;aspect=fixed;" vertex="1" parent="1">
          <mxGeometry x="654.5" y="30" width="10" height="10" as="geometry" />
        </mxCell>
        <mxCell id="Yn2UF99OzoSKR1iccTGJ-119" value="" style="ellipse;whiteSpace=wrap;html=1;aspect=fixed;" vertex="1" parent="1">
          <mxGeometry x="615" y="30" width="10" height="10" as="geometry" />
        </mxCell>
        <mxCell id="Yn2UF99OzoSKR1iccTGJ-120" value="" style="endArrow=none;html=1;rounded=0;exitX=0.75;exitY=1;exitDx=0;exitDy=0;" edge="1" parent="1" source="AryeixgYwKDA9CnlknnB-283">
          <mxGeometry width="50" height="50" relative="1" as="geometry">
            <mxPoint x="390" y="180" as="sourcePoint" />
            <mxPoint x="450" y="280" as="targetPoint" />
          </mxGeometry>
        </mxCell>
        <mxCell id="Yn2UF99OzoSKR1iccTGJ-121" value="" style="endArrow=none;html=1;rounded=0;entryX=0.75;entryY=0;entryDx=0;entryDy=0;" edge="1" parent="1" target="AryeixgYwKDA9CnlknnB-283">
          <mxGeometry width="50" height="50" relative="1" as="geometry">
            <mxPoint x="450" y="180" as="sourcePoint" />
            <mxPoint x="400" y="210" as="targetPoint" />
          </mxGeometry>
        </mxCell>
        <mxCell id="Yn2UF99OzoSKR1iccTGJ-122" value="" style="ellipse;whiteSpace=wrap;html=1;aspect=fixed;" vertex="1" parent="1">
          <mxGeometry x="445" y="170" width="10" height="10" as="geometry" />
        </mxCell>
        <mxCell id="Yn2UF99OzoSKR1iccTGJ-123" value="" style="ellipse;whiteSpace=wrap;html=1;aspect=fixed;fillColor=#000000;" vertex="1" parent="1">
          <mxGeometry x="447" y="280" width="5" height="5" as="geometry" />
        </mxCell>
        <mxCell id="Yn2UF99OzoSKR1iccTGJ-127" value="" style="endArrow=none;html=1;rounded=0;exitX=0.75;exitY=0;exitDx=0;exitDy=0;" edge="1" parent="1" source="AryeixgYwKDA9CnlknnB-285">
          <mxGeometry width="50" height="50" relative="1" as="geometry">
            <mxPoint x="350" y="69" as="sourcePoint" />
            <mxPoint x="290" y="40" as="targetPoint" />
          </mxGeometry>
        </mxCell>
        <mxCell id="Yn2UF99OzoSKR1iccTGJ-128" value="" style="endArrow=none;html=1;rounded=0;exitX=0.25;exitY=0;exitDx=0;exitDy=0;" edge="1" parent="1" source="AryeixgYwKDA9CnlknnB-285">
          <mxGeometry width="50" height="50" relative="1" as="geometry">
            <mxPoint x="230" y="60" as="sourcePoint" />
            <mxPoint x="230" y="41" as="targetPoint" />
          </mxGeometry>
        </mxCell>
        <mxCell id="Yn2UF99OzoSKR1iccTGJ-129" value="" style="endArrow=none;html=1;rounded=0;exitX=0.25;exitY=1;exitDx=0;exitDy=0;" edge="1" parent="1" source="AryeixgYwKDA9CnlknnB-285">
          <mxGeometry width="50" height="50" relative="1" as="geometry">
            <mxPoint x="240" y="69" as="sourcePoint" />
            <mxPoint x="230" y="140" as="targetPoint" />
          </mxGeometry>
        </mxCell>
        <mxCell id="Yn2UF99OzoSKR1iccTGJ-130" value="" style="endArrow=none;html=1;rounded=0;exitX=0.75;exitY=1;exitDx=0;exitDy=0;" edge="1" parent="1" source="AryeixgYwKDA9CnlknnB-285">
          <mxGeometry width="50" height="50" relative="1" as="geometry">
            <mxPoint x="306.86" y="129" as="sourcePoint" />
            <mxPoint x="290" y="140" as="targetPoint" />
          </mxGeometry>
        </mxCell>
        <mxCell id="Yn2UF99OzoSKR1iccTGJ-131" value="" style="ellipse;whiteSpace=wrap;html=1;aspect=fixed;" vertex="1" parent="1">
          <mxGeometry x="285" y="140" width="10" height="10" as="geometry" />
        </mxCell>
        <mxCell id="Yn2UF99OzoSKR1iccTGJ-132" value="" style="ellipse;whiteSpace=wrap;html=1;aspect=fixed;" vertex="1" parent="1">
          <mxGeometry x="285" y="30" width="10" height="10" as="geometry" />
        </mxCell>
        <mxCell id="Yn2UF99OzoSKR1iccTGJ-133" value="" style="ellipse;whiteSpace=wrap;html=1;aspect=fixed;" vertex="1" parent="1">
          <mxGeometry x="225" y="31" width="10" height="10" as="geometry" />
        </mxCell>
        <mxCell id="Yn2UF99OzoSKR1iccTGJ-134" value="" style="ellipse;whiteSpace=wrap;html=1;aspect=fixed;fillColor=#000000;" vertex="1" parent="1">
          <mxGeometry x="228" y="140" width="5" height="5" as="geometry" />
        </mxCell>
        <mxCell id="Yn2UF99OzoSKR1iccTGJ-135" value="" style="endArrow=none;html=1;rounded=0;" edge="1" parent="1">
          <mxGeometry width="50" height="50" relative="1" as="geometry">
            <mxPoint x="320" y="390.36" as="sourcePoint" />
            <mxPoint x="330" y="390.36" as="targetPoint" />
          </mxGeometry>
        </mxCell>
        <mxCell id="Yn2UF99OzoSKR1iccTGJ-136" value="" style="endArrow=none;html=1;rounded=0;" edge="1" parent="1">
          <mxGeometry width="50" height="50" relative="1" as="geometry">
            <mxPoint x="320" y="349.73" as="sourcePoint" />
            <mxPoint x="330" y="349.73" as="targetPoint" />
          </mxGeometry>
        </mxCell>
        <mxCell id="Yn2UF99OzoSKR1iccTGJ-137" value="" style="ellipse;whiteSpace=wrap;html=1;aspect=fixed;" vertex="1" parent="1">
          <mxGeometry x="330" y="344" width="10" height="10" as="geometry" />
        </mxCell>
        <mxCell id="Yn2UF99OzoSKR1iccTGJ-138" value="" style="ellipse;whiteSpace=wrap;html=1;aspect=fixed;" vertex="1" parent="1">
          <mxGeometry x="330" y="385.5" width="10" height="10" as="geometry" />
        </mxCell>
        <mxCell id="Yn2UF99OzoSKR1iccTGJ-139" value="" style="endArrow=none;html=1;rounded=0;exitX=0.75;exitY=0;exitDx=0;exitDy=0;" edge="1" parent="1">
          <mxGeometry width="50" height="50" relative="1" as="geometry">
            <mxPoint x="299.0000000000001" y="340" as="sourcePoint" />
            <mxPoint x="299" y="320" as="targetPoint" />
          </mxGeometry>
        </mxCell>
        <mxCell id="Yn2UF99OzoSKR1iccTGJ-140" value="" style="endArrow=none;html=1;rounded=0;exitX=0.5;exitY=0;exitDx=0;exitDy=0;" edge="1" parent="1" source="AryeixgYwKDA9CnlknnB-271">
          <mxGeometry width="50" height="50" relative="1" as="geometry">
            <mxPoint x="300" y="350" as="sourcePoint" />
            <mxPoint x="260" y="320" as="targetPoint" />
          </mxGeometry>
        </mxCell>
        <mxCell id="Yn2UF99OzoSKR1iccTGJ-141" value="" style="endArrow=none;html=1;rounded=0;exitX=0.25;exitY=0;exitDx=0;exitDy=0;" edge="1" parent="1">
          <mxGeometry width="50" height="50" relative="1" as="geometry">
            <mxPoint x="220" y="340" as="sourcePoint" />
            <mxPoint x="220" y="320" as="targetPoint" />
          </mxGeometry>
        </mxCell>
        <mxCell id="Yn2UF99OzoSKR1iccTGJ-142" value="" style="ellipse;whiteSpace=wrap;html=1;aspect=fixed;" vertex="1" parent="1">
          <mxGeometry x="294" y="310" width="10" height="10" as="geometry" />
        </mxCell>
        <mxCell id="Yn2UF99OzoSKR1iccTGJ-143" value="" style="ellipse;whiteSpace=wrap;html=1;aspect=fixed;" vertex="1" parent="1">
          <mxGeometry x="255" y="310" width="10" height="10" as="geometry" />
        </mxCell>
        <mxCell id="Yn2UF99OzoSKR1iccTGJ-144" value="" style="endArrow=none;html=1;rounded=0;entryX=0.25;entryY=1;entryDx=0;entryDy=0;" edge="1" parent="1" target="AryeixgYwKDA9CnlknnB-271">
          <mxGeometry width="50" height="50" relative="1" as="geometry">
            <mxPoint x="230" y="420" as="sourcePoint" />
            <mxPoint x="270" y="330" as="targetPoint" />
          </mxGeometry>
        </mxCell>
        <mxCell id="Yn2UF99OzoSKR1iccTGJ-145" value="" style="endArrow=none;html=1;rounded=0;" edge="1" parent="1">
          <mxGeometry width="50" height="50" relative="1" as="geometry">
            <mxPoint x="190" y="348.84" as="sourcePoint" />
            <mxPoint x="200" y="348.84" as="targetPoint" />
          </mxGeometry>
        </mxCell>
        <mxCell id="Yn2UF99OzoSKR1iccTGJ-146" value="" style="endArrow=none;html=1;rounded=0;" edge="1" parent="1">
          <mxGeometry width="50" height="50" relative="1" as="geometry">
            <mxPoint x="190" y="390.34" as="sourcePoint" />
            <mxPoint x="200" y="390.34" as="targetPoint" />
          </mxGeometry>
        </mxCell>
        <mxCell id="Yn2UF99OzoSKR1iccTGJ-147" value="" style="ellipse;whiteSpace=wrap;html=1;aspect=fixed;" vertex="1" parent="1">
          <mxGeometry x="180" y="344" width="10" height="10" as="geometry" />
        </mxCell>
        <mxCell id="Yn2UF99OzoSKR1iccTGJ-148" value="" style="ellipse;whiteSpace=wrap;html=1;aspect=fixed;" vertex="1" parent="1">
          <mxGeometry x="180" y="385.5" width="10" height="10" as="geometry" />
        </mxCell>
        <mxCell id="Yn2UF99OzoSKR1iccTGJ-149" value="" style="ellipse;whiteSpace=wrap;html=1;aspect=fixed;fillColor=#000000;" vertex="1" parent="1">
          <mxGeometry x="218" y="315.5" width="5" height="5" as="geometry" />
        </mxCell>
        <mxCell id="Yn2UF99OzoSKR1iccTGJ-151" value="" style="ellipse;whiteSpace=wrap;html=1;aspect=fixed;" vertex="1" parent="1">
          <mxGeometry x="224.5" y="420" width="10" height="10" as="geometry" />
        </mxCell>
        <mxCell id="Yn2UF99OzoSKR1iccTGJ-156" value="(1,N)" style="text;html=1;align=center;verticalAlign=middle;resizable=0;points=[];autosize=1;strokeColor=none;fillColor=none;" vertex="1" parent="1">
          <mxGeometry x="217" y="456.5" width="50" height="30" as="geometry" />
        </mxCell>
        <mxCell id="Yn2UF99OzoSKR1iccTGJ-157" value="(1,1)" style="text;html=1;align=center;verticalAlign=middle;resizable=0;points=[];autosize=1;strokeColor=none;fillColor=none;" vertex="1" parent="1">
          <mxGeometry x="289" y="478" width="50" height="30" as="geometry" />
        </mxCell>
        <mxCell id="Yn2UF99OzoSKR1iccTGJ-158" value="(1,N)" style="text;html=1;align=center;verticalAlign=middle;resizable=0;points=[];autosize=1;strokeColor=none;fillColor=none;" vertex="1" parent="1">
          <mxGeometry x="940" y="59" width="50" height="30" as="geometry" />
        </mxCell>
        <mxCell id="Yn2UF99OzoSKR1iccTGJ-159" value="(0,N)" style="text;html=1;align=center;verticalAlign=middle;resizable=0;points=[];autosize=1;strokeColor=none;fillColor=none;" vertex="1" parent="1">
          <mxGeometry x="800" y="59" width="50" height="30" as="geometry" />
        </mxCell>
        <mxCell id="Yn2UF99OzoSKR1iccTGJ-160" value="(1,1)" style="text;html=1;align=center;verticalAlign=middle;resizable=0;points=[];autosize=1;strokeColor=none;fillColor=none;" vertex="1" parent="1">
          <mxGeometry x="483" y="204" width="50" height="30" as="geometry" />
        </mxCell>
        <mxCell id="Yn2UF99OzoSKR1iccTGJ-161" value="(1,1)" style="text;html=1;align=center;verticalAlign=middle;resizable=0;points=[];autosize=1;strokeColor=none;fillColor=none;" vertex="1" parent="1">
          <mxGeometry x="306" y="204" width="50" height="30" as="geometry" />
        </mxCell>
        <mxCell id="Yn2UF99OzoSKR1iccTGJ-162" value="(0,1)" style="text;html=1;align=center;verticalAlign=middle;resizable=0;points=[];autosize=1;strokeColor=none;fillColor=none;" vertex="1" parent="1">
          <mxGeometry x="374" y="109" width="50" height="30" as="geometry" />
        </mxCell>
        <mxCell id="Yn2UF99OzoSKR1iccTGJ-163" value="(1,1)" style="text;html=1;align=center;verticalAlign=middle;resizable=0;points=[];autosize=1;strokeColor=none;fillColor=none;" vertex="1" parent="1">
          <mxGeometry x="416" y="318" width="50" height="30" as="geometry" />
        </mxCell>
        <mxCell id="Yn2UF99OzoSKR1iccTGJ-164" value="(0,N)" style="text;html=1;align=center;verticalAlign=middle;resizable=0;points=[];autosize=1;strokeColor=none;fillColor=none;" vertex="1" parent="1">
          <mxGeometry x="211.5" y="178" width="50" height="30" as="geometry" />
        </mxCell>
        <mxCell id="Yn2UF99OzoSKR1iccTGJ-165" value="(0,N)" style="text;html=1;align=center;verticalAlign=middle;resizable=0;points=[];autosize=1;strokeColor=none;fillColor=none;" vertex="1" parent="1">
          <mxGeometry x="467" y="60" width="50" height="30" as="geometry" />
        </mxCell>
        <mxCell id="Yn2UF99OzoSKR1iccTGJ-166" value="(0,N)" style="text;html=1;align=center;verticalAlign=middle;resizable=0;points=[];autosize=1;strokeColor=none;fillColor=none;" vertex="1" parent="1">
          <mxGeometry x="626.5" y="200" width="50" height="30" as="geometry" />
        </mxCell>
        <mxCell id="Yn2UF99OzoSKR1iccTGJ-167" value="(1,1)" style="text;html=1;align=center;verticalAlign=middle;resizable=0;points=[];autosize=1;strokeColor=none;fillColor=none;" vertex="1" parent="1">
          <mxGeometry x="484" y="509" width="50" height="30" as="geometry" />
        </mxCell>
        <mxCell id="Yn2UF99OzoSKR1iccTGJ-168" value="(0,N)" style="text;html=1;align=center;verticalAlign=middle;resizable=0;points=[];autosize=1;strokeColor=none;fillColor=none;" vertex="1" parent="1">
          <mxGeometry x="418" y="388.5" width="50" height="30" as="geometry" />
        </mxCell>
        <mxCell id="Yn2UF99OzoSKR1iccTGJ-169" value="(1,1)" style="text;html=1;align=center;verticalAlign=middle;resizable=0;points=[];autosize=1;strokeColor=none;fillColor=none;" vertex="1" parent="1">
          <mxGeometry x="684.5" y="390" width="50" height="30" as="geometry" />
        </mxCell>
        <mxCell id="Yn2UF99OzoSKR1iccTGJ-170" value="(1,1)" style="text;html=1;align=center;verticalAlign=middle;resizable=0;points=[];autosize=1;strokeColor=none;fillColor=none;" vertex="1" parent="1">
          <mxGeometry x="786" y="338" width="50" height="30" as="geometry" />
        </mxCell>
        <mxCell id="Yn2UF99OzoSKR1iccTGJ-171" value="(1,1)" style="text;html=1;align=center;verticalAlign=middle;resizable=0;points=[];autosize=1;strokeColor=none;fillColor=none;" vertex="1" parent="1">
          <mxGeometry x="853" y="249" width="50" height="30" as="geometry" />
        </mxCell>
        <mxCell id="Yn2UF99OzoSKR1iccTGJ-172" value="(0,1)" style="text;html=1;align=center;verticalAlign=middle;resizable=0;points=[];autosize=1;strokeColor=none;fillColor=none;" vertex="1" parent="1">
          <mxGeometry x="803" y="199" width="50" height="30" as="geometry" />
        </mxCell>
        <mxCell id="Yn2UF99OzoSKR1iccTGJ-173" value="(1,N)" style="text;html=1;align=center;verticalAlign=middle;resizable=0;points=[];autosize=1;strokeColor=none;fillColor=none;" vertex="1" parent="1">
          <mxGeometry x="627" y="509" width="50" height="30" as="geometry" />
        </mxCell>
      </root>
    </mxGraphModel>
  </diagram>
</mxfile>
